<svg xmlns="http://www.w3.org/2000/svg" viewBox="0 0 32.54 37.45"><defs><style>.cls-1{fill:#282828;}</style></defs><g id="Camada_2" data-name="Camada 2"><g id="Camada_1-2" data-name="Camada 1"><path class="cls-1" d="M13.62,9.92C13.18,8.69,11.86,8.73,11,8.11,8.48,6.27,8.39,3,11.1,1.42a10.65,10.65,0,0,1,10.27-.2c2.89,1.41,2.94,5.07.32,6.92-.8.56-1.88.64-2.61,1.68.74,1.06,2.07,1,3.11,1.42,2.73,1.15,3,2.53.85,4.59-2.41,2.27-5,4.39-7.42,6.61-1.06,1-2.46,1.87-.77,3.56s2.83,1.45,4.28-.19c2.19-2.48,4.49-4.87,6.8-7.24s3.63-2.2,5,.67c2.82,5.91,2.74,14.37-7.14,17.17a26.77,26.77,0,0,1-14.21.15C.38,34.17-2.79,25.38,2.7,17.6a18.79,18.79,0,0,1,8.47-6.26C12,11,13.1,11,13.62,9.92Z"/></g></g></svg>