<svg xmlns="http://www.w3.org/2000/svg" viewBox="0 0 52.72 35.04"><defs><style>.cls-1{fill:#282828;}</style></defs><g id="Camada_2" data-name="Camada 2"><g id="Camada_1-2" data-name="Camada 1"><path class="cls-1" d="M26.31,35c-3.08,0-6.15-.09-9.22,0a4.06,4.06,0,0,1-4.38-2.55c-2.32-5-4.75-9.93-7.16-14.87-.64-1.3-1-2.59.37-3.58s2.78-.48,3.79.88c1.46,2,2.93,3.93,4.37,5.92.7,1,1.56,1.66,2.79,1.26s.88-1.6.91-2.51c.07-1.84,0-3.67,0-5.51A2.23,2.23,0,0,1,20,11.6c1.32-.1,2,.75,2.34,1.9.53,1.76,1,3.53,1.62,5.25.46,1.33.57,3.24,2.49,3.15s1.93-2,2.39-3.3c.55-1.62,1-3.26,1.5-4.9.38-1.31,1.1-2.26,2.59-2.08s2,1.29,2,2.65c0,1.83,0,3.67,0,5.51,0,.9-.31,2.07,1.1,2.37A2.39,2.39,0,0,0,38.56,21c1.09-1.48,2.16-3,3.25-4.45a19.61,19.61,0,0,1,1.84-2.29,2.22,2.22,0,0,1,3-.36,2.06,2.06,0,0,1,.89,2.84C44.88,22.39,42.15,28,39.43,33.61,38.78,35,37.53,35,36.27,35Z"/><path class="cls-1" d="M9.09,7.26a4.59,4.59,0,0,1-4.46,4.48A4.74,4.74,0,0,1,0,7,4.76,4.76,0,0,1,4.5,2.54,4.54,4.54,0,0,1,9.09,7.26Z"/><path class="cls-1" d="M52.72,7a4.58,4.58,0,0,1-4.56,4.73,4.75,4.75,0,0,1-4.51-4.47,4.64,4.64,0,0,1,4.63-4.7A4.47,4.47,0,0,1,52.72,7Z"/><path class="cls-1" d="M19.61,0a4.45,4.45,0,0,1,4.17,4.68,4.72,4.72,0,0,1-5,4.34,4.62,4.62,0,0,1-4.14-4.78A4.42,4.42,0,0,1,19.61,0Z"/><path class="cls-1" d="M33.53,0a4.32,4.32,0,0,1,4.55,4.26,4.57,4.57,0,0,1-4.5,4.78A4.72,4.72,0,0,1,29,4.33,4.47,4.47,0,0,1,33.53,0Z"/></g></g></svg>