<svg xmlns="http://www.w3.org/2000/svg" viewBox="0 0 32.04 33.45"><defs><style>.cls-1{fill:#282828;}</style></defs><g id="Camada_2" data-name="Camada 2"><g id="Camada_1-2" data-name="Camada 1"><path class="cls-1" d="M16,33.44c-4.19,0-8.37,0-12.55,0C1.68,33.46.23,33.14.1,31S.77,27.65,3,27.75c1.93.08,2.67-1,2.68-2.72a20.61,20.61,0,0,0-.16-4.38c-.44-2.07-2.4-1.16-3.7-1.54A2.34,2.34,0,0,1,0,16.69C0,12,0,7.38,0,2.73,0,.89,1,0,2.75,0c2.71,0,5.41,0,8.12,0C13,0,14,1,13.8,3.21c-.21,2.69-.17,5.39-.35,8.08-.13,2.08,1.06,2.45,2.76,2.44s2.48-.7,2.37-2.46c-.17-2.69-.14-5.39-.35-8.07C18.06,1,19,0,21.17,0c2.71,0,5.42,0,8.13,0A2.45,2.45,0,0,1,32,2.76c0,4.53,0,9.06,0,13.59,0,2-1.07,2.94-3,2.86-3.17-.14-2.79,2.1-2.74,4s-.65,4.51,2.72,4.5c2.28,0,3,1.21,2.9,3.28s-1.63,2.45-3.38,2.44C24.37,33.43,20.18,33.44,16,33.44Z"/></g></g></svg>