<svg xmlns="http://www.w3.org/2000/svg" viewBox="0 0 44.07 36.38"><defs><style>.cls-1{fill:#eef6ff;}</style></defs><g id="Camada_2" data-name="Camada 2"><g id="Camada_1-2" data-name="Camada 1"><path class="cls-1" d="M21.92,36.28c-3.45,0-6.92-.25-10.34.07s-5.4-1.53-7.48-3.77C1.46,29.74-.13,26.63,0,22.7.16,18.41,2.86,15.41,7,15.11c4.48-.32,7.82,2.08,8.66,6.25.1.48.05,1,.12,1.47.15,1.15-.54,2.87.94,3.23,1.75.42,1.46-1.45,1.87-2.48.64-1.61,2.11-1.44,3.45-1.46,1.5,0,3,0,3.69,1.74.34.83.11,2.41,1.41,2.22,1.62-.23,1.16-1.88,1.25-3,.44-5.47,3.69-8.38,8.92-7.93a7.38,7.38,0,0,1,6.64,5.93c1,5.11-2.85,12.71-7.62,14.86-1.51.68-3.16.34-4.75.36C28.33,36.31,25.13,36.28,21.92,36.28Z"/><path class="cls-1" d="M32.07,9.88c0,3.38-.39,3.71-3.94,2.93-3.89-.87-4-.73-3.15,3.22.29,1.29,1.06,2.86-.54,3.58a6.24,6.24,0,0,1-5-.07c-.84-.37-.92-1.38-.72-2.27s.36-1.67.61-2.49c.57-1.88.21-2.89-2-2.27-.47.13-1,.18-1.44.28-3.5.75-4.43-.15-4-3.68C12,7.59,12.71,6.85,14.22,7a24,24,0,0,1,2.86.64c1.9.51,2.94.14,2.29-2.1-.14-.47-.18-1-.28-1.44C18.32.71,19.17-.18,22.71,0c2.33.13,3,1.25,2.52,3.36-.15.6-.38,1.17-.48,1.77-.48,2.66-.18,2.91,2.61,2.32.48-.1,1-.23,1.44-.3C31.71,6.72,32,7,32.07,9.88Z"/></g></g></svg>