<svg xmlns="http://www.w3.org/2000/svg" viewBox="0 0 32.14 35.35"><defs><style>.cls-1{fill:#eef6ff;}</style></defs><g id="Camada_2" data-name="Camada 2"><g id="Camada_1-2" data-name="Camada 1"><path class="cls-1" d="M32.11,22.32c0,3.3-.08,6.61,0,9.9.06,2.12-.58,3.16-2.91,3.13-6.63-.09-13.27-.05-19.91,0A4.25,4.25,0,0,1,4.87,32.2c-.72-2.18.26-3.88,2-5,2.68-1.73,5.46-3.29,8.2-4.93,1.59-.95,3-2,1.42-4-1.39-1.8-2.74-.95-4.07.14-1.14.94-2.28,1.87-3.44,2.77A5.61,5.61,0,0,1,.17,18.58a3,3,0,0,1,.7-3c2.86-3.67,5.6-7.45,8.58-11A12.57,12.57,0,0,1,23.5.77a12.63,12.63,0,0,1,8.6,12C32.14,16,32.11,19.14,32.11,22.32Z"/></g></g></svg>