<svg xmlns="http://www.w3.org/2000/svg" viewBox="0 0 27.26 33.5"><defs><style>.cls-1{fill:#eef6ff;}</style></defs><g id="Camada_2" data-name="Camada 2"><g id="Camada_1-2" data-name="Camada 1"><path class="cls-1" d="M19.1,23.24c1.3,2.62,3.32,4.62,4.88,6.93.52.78,1.45,1.52.88,2.6-.48.89-1.49.7-2.33.7-6,0-12,.07-18.07,0C2,33.41,1.59,32.59,3,30.56c1.65-2.4,3.44-4.7,5.18-7C6.58,22.2,4.94,22.4,3.39,22.19S0,21.9,0,19.68c0-2.05,1.7-2.06,3.18-2.23a60.91,60.91,0,0,0,7.17-1.12C6.81,14.16,3.23,12.1,3.87,7.25a7.54,7.54,0,0,1,2.74-5C10.88-1.27,18.93-.53,22,3.65c1.75,2.41,1.64,5.09.74,7.71S19.05,14.72,17,16.57c2.48.31,5,.66,7.44.91,1.45.15,2.83.42,2.86,2.17,0,1.91-1.46,2.34-3,2.51S20.81,22.28,19.1,23.24Z"/></g></g></svg>